# xmcd
#
# Track frame offsets: 
#        150
#        16487
#        35037
#        46537
#        60747
#        80030
#        92487
#        107405
#        126997
#        143352
#        156910
#        170295
#        185410
#        200675
#        212975
#
# Disc length: 2987 seconds
#
# Revision: 0
# Processed by: cddbd v1.5.1PL0 Copyright (c) Steve Scherf et al.
# Submitted via: ExactAudioCopy v0.95b2
#
DISCID=c90ba90f
DTITLE=Various Artist - All About Soul, Disc 2
DYEAR=1900
DGENRE=Soul
TTITLE0=The Chi Lites - Have You Seen Her
TTITLE1=As We Speak - Love Me For A Reason
TTITLE2=Aaron Neville - Tell It Like It Is
TTITLE3=Eddie Holman - (Hey There) Lonely Girl
TTITLE4=The Tams - To Love Somebody
TTITLE5=The Platters - Only You
TTITLE6=Dee Clark - The Dock Of The Bay
TTITLE7=Al Jarreau - Lean On Me
TTITLE8=Mike Anthony - Why Can't We Live Together
TTITLE9=Percy Sledge - My Special Prayer
TTITLE10=The Drifters - On Broadway
TTITLE11=Al Wilson - Show And Tell
TTITLE12=Dobie Gray - Drift Away
TTITLE13=Jerry Butler - He Will Break Your Heart
TTITLE14=Solomon Burke - If You Need Me
EXTD=
EXTT0=
EXTT1=
EXTT2=
EXTT3=
EXTT4=
EXTT5=
EXTT6=
EXTT7=
EXTT8=
EXTT9=
EXTT10=
EXTT11=
EXTT12=
EXTT13=
EXTT14=
PLAYORDER=
